# xmcd
#
# Track frame offsets: 
#        183
#        14338
#        26040
#        38240
#        51900
#        65313
#        75230
#        85410
#        95988
#        109365
#        121615
#        134533
#        143715
#        157890
#
# Disc length: 2212 seconds
#
# Revision: 0
# Processed by: cddbd v1.4PL0 Copyright (c) Steve Scherf et al.
# Submitted via: ExactAudioCopy v0.90b2
#
DISCID=b608a20e
DTITLE=Buddy Guy - In The Beginning
DYEAR=1900
DGENRE=Blues
TTITLE0=Sit And Cry
TTITLE1=Try To Quit You Baby
TTITLE2=You Sure Can't Do
TTITLE3=This Is The End
TTITLE4=Slop Around
TTITLE5=Broken Hearted Blues
TTITLE6=I Got My Eyes On You
TTITLE7=First Time
TTITLE8=Stone Crazy
TTITLE9=Skippin'
TTITLE10=When My Left Eye Jumps
TTITLE11=The Treasure Untold
TTITLE12=I Dig Your Wig
TTITLE13=My Time After While
EXTD=
EXTT0=
EXTT1=
EXTT2=
EXTT3=
EXTT4=
EXTT5=
EXTT6=
EXTT7=
EXTT8=
EXTT9=
EXTT10=
EXTT11=
EXTT12=
EXTT13=
PLAYORDER=
